# xmcd
#
# Track frame offsets:
#	150
#	774
#	19195
#	22560
#	34260
#	53205
#	71292
#	89678
#	108187
#	131420
#	162089
#	182024
#	205339
#	217759
#
# Disc length: 3102 seconds
#
# Revision: 1
# Processed by: cddbd v1.5.1PL0 Copyright (c) Steve Scherf et al.
# Submitted via: audiograbber 1.80
#
DISCID=a20c1c0e
DTITLE=Jelly Roll All Stars - Must Be Jelly (Live @ WROX, Clarksdale, MS)
DYEAR=1900
DGENRE=
TTITLE0=Jelly Roll All Stars Intro.
TTITLE1=Baby Don't Say That No More
TTITLE2=Reed Rap
TTITLE3=I'm Gonna Get My Baby
TTITLE4=Sun Is Shining
TTITLE5=If I Ever Get Flush Again
TTITLE6=King Motel
TTITLE7=Jelly Roll Strut
TTITLE8=Arkansas Boogie
TTITLE9=Eye To Eye
TTITLE10=Feels Too Good (To Be Bad)
TTITLE11=Country Girl
TTITLE12=Nine Below Zero
TTITLE13=Tryin' To Find It
EXTD=
EXTT0=
EXTT1=
EXTT2=
EXTT3=
EXTT4=
EXTT5=
EXTT6=
EXTT7=
EXTT8=
EXTT9=
EXTT10=
EXTT11=
EXTT12=
EXTT13=
PLAYORDER=
